<svg xmlns="http://www.w3.org/2000/svg" style="display: none;">
  <symbol fill="none" viewBox="0 0 41 41" id="behance">
    <path d="M34.3906 0.25H6.10938C2.87848 0.25 0.25 2.87848 0.25 6.10938V34.3906C0.25 37.6215 2.87848 40.25 6.10938 40.25H34.3906C37.6215 40.25 40.25 37.6215 40.25 34.3906V6.10938C40.25 2.87848 37.6215 0.25 34.3906 0.25ZM37.9062 34.3906C37.9062 36.3291 36.3291 37.9062 34.3906 37.9062H6.10938C4.1709 37.9062 2.59375 36.3291 2.59375 34.3906V6.10938C2.59375 4.1709 4.1709 2.59375 6.10938 2.59375H34.3906C36.3291 2.59375 37.9062 4.1709 37.9062 6.10938V34.3906Z" fill="currentColor" stroke="currentColor" stroke-width="0.5"></path>
    <path d="M19.0781 16.7344C19.0781 14.1495 16.9755 12.0469 14.3906 12.0469H7.35938V28.4531H14.3906C16.9755 28.4531 19.0781 26.3505 19.0781 23.7656C19.0781 22.3667 18.4614 21.1097 17.486 20.25C18.4614 19.3903 19.0781 18.1333 19.0781 16.7344ZM16.7344 23.7656C16.7344 25.058 15.683 26.1094 14.3906 26.1094H9.70312V21.4219H14.3906C15.683 21.4219 16.7344 22.4732 16.7344 23.7656ZM9.70312 19.0781V14.3906H14.3906C15.683 14.3906 16.7344 15.442 16.7344 16.7344C16.7344 18.0268 15.683 19.0781 14.3906 19.0781H9.70312Z" fill="currentColor" stroke="currentColor" stroke-width="0.5"></path>
    <path d="M27.2813 16.7344C24.0504 16.7344 21.4219 19.3629 21.4219 22.5938C21.4219 25.8246 24.0504 28.4531 27.2813 28.4531C29.3665 28.4531 31.3111 27.331 32.356 25.5244L30.3272 24.3506C29.6998 25.4355 28.5325 26.1094 27.2813 26.1094C25.7532 26.1094 24.4501 25.1298 23.9664 23.7656H33.1406V22.5938C33.1406 19.3629 30.5121 16.7344 27.2813 16.7344ZM23.9664 21.4219C24.4501 20.0577 25.7532 19.0781 27.2813 19.0781C28.8093 19.0781 30.1124 20.0577 30.5961 21.4219H23.9664Z" fill="currentColor" stroke="currentColor" stroke-width="0.5"></path>
    <path d="M22.5938 12.0469H31.9688V14.3906H22.5938V12.0469Z" fill="currentColor" stroke="currentColor" stroke-width="0.5"></path>
  </symbol>

  <symbol fill="none" viewBox="0 0 40 40" id="dribbble">
    <path d="M20 0.5C30.7431 0.5 39.5 9.2565 39.5 19.999C39.5 30.7416 30.7431 39.498 20 39.498C9.25689 39.498 0.5 30.7416 0.5 19.999C0.5 9.2565 9.25689 0.5 20 0.5ZM24.0654 25.0078C20.6113 25.9904 16.9955 28.5397 14.2539 31C12.9293 32.1785 11.8596 33.2974 11.001 34.2139L10.5732 34.6699L11.1113 34.9863C13.7128 36.5194 16.7327 37.4209 19.9902 37.4209C22.4351 37.4209 24.7419 36.9165 26.8486 36.0264L27.2021 35.877L27.1494 35.4971C26.654 31.9225 25.7803 28.5154 24.6748 25.3252L24.5195 24.8789L24.0654 25.0078ZM36.2568 24.3867C34.764 24.2219 32.8713 24.0558 30.4717 24.1436H30.4668C29.4333 24.1923 28.3327 24.2896 27.2139 24.4355L26.6133 24.5137L26.8047 25.0889C27.7494 27.9324 28.5304 30.9449 29.0352 34.0781L29.1602 34.8545L29.8105 34.4121C33.067 32.1951 35.5327 28.8979 36.6816 25.0254L36.8516 24.4521L36.2568 24.3867ZM20.1738 15.9883C12.2819 18.1804 5.32978 18.1138 3.16406 18.0283L2.68359 18.0098L2.64551 18.4893C2.60732 18.9762 2.56738 19.4765 2.56738 20.0088C2.56743 25.2466 4.88532 29.9197 8.53613 33.1152L8.9043 33.4375L9.23438 33.0762C10.15 32.0748 11.3779 30.7992 12.8711 29.4678L12.873 29.4658C15.6817 26.9344 19.2977 24.254 23.2383 23.084L23.7637 22.9277L23.5605 22.4189C22.6793 20.2111 21.7302 18.159 20.7529 16.2432L20.5674 15.8789L20.1738 15.9883ZM32.415 8.62109C30.7211 10.6424 27.7785 13.2692 23.1191 15.0518L22.6035 15.249L22.8516 15.7432C23.8553 17.741 24.8286 19.87 25.7158 22.1689L25.8604 22.543L26.2568 22.4834C29.6261 21.9804 32.7407 21.9801 35.0938 22.1602V22.1611C35.7877 22.2174 36.1841 22.2815 36.749 22.3594L37.2588 22.4297L37.3145 21.9189C37.3835 21.288 37.4229 20.6541 37.4229 19.999C37.4229 15.6422 35.8082 11.6719 33.1768 8.61523L32.793 8.16992L32.415 8.62109ZM12.6748 4.20898C8.08094 6.32769 4.59586 10.3773 3.21973 15.3271L3.0498 15.9414L3.68652 15.9609C6.21737 16.0388 12.2682 15.9221 18.9727 14.166L19.6016 14.001L19.2812 13.4355C16.6797 8.85171 14.4915 5.91767 13.2793 4.35645L13.0361 4.04297L12.6748 4.20898ZM20 2.57715C18.5507 2.57715 17.1454 2.77529 15.8145 3.10059L15.0732 3.28223L15.5342 3.88867C16.9565 5.75959 19.0004 8.58558 21.4473 13.0107L21.6533 13.3848L22.0557 13.2383C26.6823 11.5585 29.4559 8.98909 30.9746 7.12305L31.291 6.7334L30.9004 6.41797C27.9203 4.01233 24.1372 2.57715 20 2.57715Z" fill="currentColor" stroke="currentColor"></path>
  </symbol>

  <symbol fill="none" viewBox="0 0 40 40" id="instagram">
    <path d="M28.3945 0.5C34.5121 0.500164 39.5 5.49576 39.5 11.6123V28.3857C39.5 34.5025 34.5119 39.4978 28.4043 39.498H11.6152C5.49628 39.498 0.50002 34.5109 0.5 28.4053V11.6221C0.5 5.50602 5.49708 0.509848 11.6152 0.509766H12.1152V0.5H28.3945ZM11.6152 2.58594C6.60772 2.58602 2.58751 6.60691 2.57715 11.6299V28.415C2.57724 33.4117 6.59971 37.4316 11.6152 37.4316H28.4043C33.402 37.4314 37.4229 33.4099 37.4229 28.3955V11.6221C37.4229 6.60725 33.4015 2.5861 28.3945 2.58594H11.6152ZM20.0098 9.7373C25.6568 9.73739 30.2793 14.3589 30.2793 20.0039C30.2793 25.6489 25.6567 30.2695 20.0098 30.2695C14.3627 30.2695 9.74027 25.649 9.74023 20.0039C9.74023 14.3588 14.3627 9.7373 20.0098 9.7373ZM20.0098 11.8135C15.4645 11.8135 11.8174 15.4596 11.8174 20.0039C11.8174 24.5481 15.4646 28.1943 20.0098 28.1943C24.5549 28.1943 28.2021 24.5481 28.2021 20.0039C28.2021 15.4597 24.5549 11.8136 20.0098 11.8135ZM32.3174 6.66211C32.8969 6.66215 33.3552 7.12023 33.3555 7.69922C33.3555 8.27844 32.8971 8.73726 32.3174 8.7373C31.7376 8.7373 31.2793 8.27846 31.2793 7.69922C31.2796 7.1202 31.7378 6.66211 32.3174 6.66211Z" fill="currentColor" stroke="currentColor"></path>
  </symbol>

  <symbol fill="none" viewBox="0 0 41 41" id="linkedin">
    <path d="M34.3906 0.25H6.10938C2.87848 0.25 0.25 2.87848 0.25 6.10938V34.3906C0.25 37.6215 2.87848 40.25 6.10938 40.25H34.3906C37.6215 40.25 40.25 37.6215 40.25 34.3906V6.10938C40.25 2.87848 37.6215 0.25 34.3906 0.25ZM37.9062 34.3906C37.9062 36.3291 36.3291 37.9062 34.3906 37.9062H6.10938C4.1709 37.9062 2.59375 36.3291 2.59375 34.3906V6.10938C2.59375 4.1709 4.1709 2.59375 6.10938 2.59375H34.3906C36.3291 2.59375 37.9062 4.1709 37.9062 6.10938V34.3906Z" fill="currentColor" stroke="currentColor" stroke-width="0.5"></path>
    <path d="M26.4915 15.4473C27.3814 15.473 28.2249 15.6721 28.9847 16.1465C29.9587 16.7547 30.5527 17.645 30.9007 18.7139C31.1719 19.5467 31.2611 20.4062 31.262 21.2773C31.2642 23.7876 31.2633 26.2983 31.263 28.8086C31.263 28.8529 31.2592 28.8972 31.2562 28.9482H26.9886V28.7676L26.9896 21.8418C26.9895 21.35 26.9522 20.8635 26.8275 20.3828C26.569 19.3883 25.8805 18.9183 25.1458 18.8164C24.4125 18.7148 23.6327 18.98 23.1878 19.4521C22.7426 19.9247 22.4501 20.4598 22.4378 21.1221C22.4351 21.2773 22.4261 21.4355 22.4261 21.5918C22.4252 23.9809 22.4251 26.3706 22.4251 28.7598V28.9473H18.1673V15.7617H22.4232V17.5293L22.4319 17.5332C22.4427 17.5378 22.4555 17.543 22.4671 17.5479L22.4778 17.5527L22.4847 17.543C22.515 17.5021 22.5471 17.4614 22.5775 17.4199C23.0064 16.8286 23.4985 16.3056 24.1517 15.9521C24.8813 15.557 25.6699 15.4237 26.4915 15.4473Z" fill="currentColor" stroke="currentColor" stroke-width="0.0306072"></path>
    <path d="M15.5162 15.7578V28.9551H11.2809V15.7578H15.5162Z" fill="currentColor" stroke="currentColor" stroke-width="0.0306072"></path>
    <path d="M13.5809 9.17969C14.2486 9.1788 14.8177 9.41372 15.2206 9.81543C15.6235 10.2173 15.8609 10.7868 15.8632 11.4561C15.8653 12.1178 15.6271 12.6821 15.2186 13.0811C14.81 13.48 14.2305 13.7145 13.5497 13.7148C12.2219 13.7157 11.276 12.7749 11.2733 11.4512C11.2709 10.1265 12.2301 9.1815 13.5809 9.17969Z" fill="currentColor" stroke="currentColor" stroke-width="0.0306072"></path>
  </symbol>

  <symbol fill="none" viewBox="0 0 26 26" id="icon-star">
    <path d="M6.91471 25.6211C6.28429 26.1123 5.64017 26.1259 4.98235 25.662C4.32452 25.1982 4.10525 24.5843 4.32452 23.8203L6.66802 16.2485L0.706493 12.0329C0.0486696 11.5691 -0.149774 10.9551 0.111163 10.1911C0.371003 9.42715 0.898359 9.04516 1.69323 9.04516H9.05264L11.4372 1.18692C11.5743 0.804923 11.787 0.511331 12.0753 0.306144C12.3626 0.102048 12.6707 0 12.9996 0C13.3285 0 13.6366 0.102048 13.9238 0.306144C14.2122 0.511331 14.4249 0.804923 14.5619 1.18692L16.9465 9.04516H24.3059C25.1008 9.04516 25.6287 9.42715 25.8896 10.1911C26.1495 10.9551 25.9505 11.5691 25.2927 12.0329L19.3311 16.2485L21.6746 23.8203C21.8939 24.5843 21.6746 25.1982 21.0168 25.662C20.359 26.1259 19.7149 26.1123 19.0844 25.6211L12.9996 20.9962L6.91471 25.6211Z" fill="currentColor"></path>
  </symbol>

  <symbol fill="none" viewBox="0 0 54 80" id="figma">
    <path d="M13.3333 79.9997C20.6933 79.9997 26.6667 74.0263 26.6667 66.6663V53.333H13.3333C5.97333 53.333 0 59.3063 0 66.6663C0 74.0263 5.97333 79.9997 13.3333 79.9997Z" fill="#0ACF83"></path>
    <path d="M0 40.0003C0 32.6403 5.97333 26.667 13.3333 26.667H26.6667V53.3337H13.3333C5.97333 53.3337 0 47.3603 0 40.0003Z" fill="#A259FF"></path>
    <path d="M0 13.3333C0 5.97333 5.97333 0 13.3333 0H26.6667V26.6667H13.3333C5.97333 26.6667 0 20.6933 0 13.3333Z" fill="#F24E1E"></path>
    <path d="M26.6666 0H40C47.36 0 53.3333 5.97333 53.3333 13.3333C53.3333 20.6933 47.36 26.6667 40 26.6667H26.6666V0Z" fill="#FF7262"></path>
    <path d="M53.3334 40.0003C53.3334 47.3603 47.3601 53.3337 40.0001 53.3337C32.6401 53.3337 26.6667 47.3603 26.6667 40.0003C26.6667 32.6403 32.6401 26.667 40.0001 26.667C47.3601 26.667 53.3334 32.6403 53.3334 40.0003Z" fill="#1ABCFE"></path>
  </symbol>

  <symbol fill="none" viewBox="0 0 80 80" id="ae">
    <path d="M80 0H0V80H80V0Z" fill="#BC85F3"></path>
    <path d="M73.2956 6.7041H6.70471V73.2953H73.2956V6.7041Z" fill="#252653"></path>
    <path fill-rule="evenodd" clip-rule="evenodd" d="M32.1632 49.1828L34.9495 58.4514H42.7758L31.6618 21.1482C31.6411 21.0806 31.5894 21.0338 31.4809 21.0338L22.2847 21.0078C21.928 21.0078 21.9177 21.1951 21.9487 21.5487C22.0624 22.8334 22.0004 23.5512 21.7368 24.555L11.8841 58.4566L19.3072 58.4462L21.6179 49.1776L32.1632 49.1828ZM30.8296 42.4629H23.21L26.9061 27.4469L30.8296 42.4629ZM51.9048 46.1713L66.2702 46.1921C67.1749 45.0271 67.3403 42.8373 67.3144 41.4018C67.2162 35.5764 63.3806 30.0007 56.4538 29.9643C44.8228 29.8967 42.6207 44.6942 46.5804 53.2294C47.8262 55.9132 50.3281 57.6192 53.2643 58.4306C54.6031 58.7999 56.0247 58.9871 57.4618 58.9923C60.3049 59.0027 63.1945 58.311 65.5155 56.9795C65.5517 56.9587 65.6137 56.9587 65.6189 56.917V56.7506L65.6137 51.9291C65.6137 51.7106 65.4483 51.5858 65.2002 51.6638C62.264 52.5532 52.3183 55.3931 51.8582 46.4418C51.8531 46.3742 51.8376 46.1713 51.9048 46.1713ZM59.1056 41.3394H51.791C51.8272 37.4281 53.6106 35.2071 56.3659 35.1967C58.8678 35.1863 60.46 36.934 60.5375 41.2458C60.5375 41.4434 60.5375 41.3394 60.5375 41.3394H59.1056Z" fill="#BC85F3"></path>
  </symbol>

  <symbol fill="none" viewBox="0 0 80 80" id="ai">
    <path d="M80 0H0V80H80V0Z" fill="#FF7C00"></path>
    <path d="M73.2956 6.7041H6.70471V73.2953H73.2956V6.7041Z" fill="#261300"></path>
    <path d="M59.9588 32.0449H53.6419C53.4792 32.0449 53.3473 32.1777 53.3473 32.3414V58.4359C53.3473 58.5997 53.4792 58.7324 53.6419 58.7324H59.9588C60.1215 58.7324 60.2535 58.5997 60.2535 58.4359V32.3414C60.2535 32.1777 60.1215 32.0449 59.9588 32.0449Z" fill="#FF7C00"></path>
    <path d="M56.8001 28.5183C58.8271 28.5183 60.4703 26.9372 60.4703 24.9867C60.4703 23.0362 58.8271 21.4551 56.8001 21.4551C54.7731 21.4551 53.1299 23.0362 53.1299 24.9867C53.1299 26.9372 54.7731 28.5183 56.8001 28.5183Z" fill="#FF7C00"></path>
    <path fill-rule="evenodd" clip-rule="evenodd" d="M39.695 49.4013L42.2848 58.0301C42.4192 58.5399 42.6828 58.6647 43.0395 58.6595H49.6717C50.1835 58.6647 50.2197 58.5086 50.1421 58.1654L39.1884 21.4031C39.1677 21.3355 39.116 21.2887 39.0127 21.2887L29.8268 21.2627C29.465 21.2627 29.4598 21.4499 29.4908 21.8036C29.6045 23.0831 29.5425 23.8009 29.2737 24.8047L19.5761 58.1862C19.4727 58.5034 19.4986 58.6595 19.9121 58.6647L26.1721 58.6595C26.8338 58.6387 26.87 58.4566 26.9837 58.1238L29.1548 49.4013H39.695ZM38.3562 42.6917H30.7521L34.4378 27.6914L38.3562 42.6917Z" fill="#FF7C00"></path>
  </symbol>

  <symbol fill="none" viewBox="0 0 80 80" id="ps">
    <path d="M80 0H0V80H80V0Z" fill="#87BCF6"></path>
    <path d="M73.2955 6.7041H6.70468V73.2953H73.2955V6.7041Z" fill="#252653"></path>
    <path fill-rule="evenodd" clip-rule="evenodd" d="M59.3125 31.4519C53.3885 28.4456 43.1895 29.9019 43.1895 37.7454C43.1895 43.5863 47.206 45.8853 52.1168 47.8149C59.0954 50.556 52.3133 55.7364 43.7943 50.3791C43.7943 50.3791 43.4893 50.2283 43.3394 50.3791C43.1895 50.53 43.1895 50.6808 43.1895 50.8368C43.1895 50.9877 43.1895 56.4646 43.1895 56.4646C46.167 57.9989 48.3898 58.7791 51.8274 58.7427C62.9155 58.6283 64.5128 47.945 58.6146 43.836C57.5446 43.087 54.6808 41.5943 53.7762 41.2458C49.0876 39.4462 49.4857 36.8872 50.9744 35.5973C52.6183 34.1669 57.1776 36.3306 59.0954 37.5373C60.2585 38.2603 60.4497 37.3605 60.4446 36.5699L60.4291 32.8302C60.4291 31.9408 60.1241 31.868 59.3125 31.4519ZM25.0711 40.7933V27.0933C25.0711 27.0256 25.3089 26.7916 25.3709 26.7916C31.1398 26.4951 34.4223 27.629 34.717 33.8288C35.053 40.9441 29.1238 41.095 25.0711 41.095V40.7933ZM18.1132 21.7672V58.5971H25.0711V46.7279C33.6211 47.3416 41.3337 44.2573 41.3337 34.3126C41.3337 30.3024 40.0931 26.2663 37.1517 23.8269C33.0421 20.4149 23.4376 21.1743 18.1132 21.7672Z" fill="#87BCF6"></path>
  </symbol>
</svg>